<svg xmlns="http://www.w3.org/2000/svg" width="100" height="100"><g fill="#898989" fill-rule="evenodd"><path d="M30 98h40v2H30z"/><path d="M49 80h2v20h-2z"/><path fill-rule="nonzero" d="M4 22a2 2 0 0 0-2 2v52a2 2 0 0 0 2 2h92a2 2 0 0 0 2-2V24a2 2 0 0 0-2-2H4zm0-2h92a4 4 0 0 1 4 4v52a4 4 0 0 1-4 4H4a4 4 0 0 1-4-4V24a4 4 0 0 1 4-4zM64.854.593l-1.891 2.329 1.552 1.26 1.892-2.328-1.553-1.26zm-3.152 3.88l-1.892 2.33 1.552 1.26 1.892-2.328-1.552-1.261zm-3.153 3.881l-1.892 2.329 1.552 1.261 1.892-2.328-1.552-1.262zm-3.153 3.881l-1.892 2.328 1.552 1.262 1.892-2.329-1.552-1.261zm-3.153 3.88l-1.65 2.03 1.553 1.262 1.649-2.03-1.552-1.261zM35.146.593l1.891 2.329-1.552 1.26-1.892-2.328 1.553-1.26zm3.152 3.88l1.892 2.33-1.552 1.26-1.892-2.328 1.552-1.261zm3.153 3.881l1.892 2.329-1.552 1.261-1.892-2.328 1.552-1.262zm3.153 3.881l1.892 2.328-1.552 1.262-1.892-2.329 1.552-1.261zm3.153 3.88l1.65 2.03-1.553 1.262-1.649-2.03 1.552-1.261z"/><circle cx="12" cy="68" r="4"/></g></svg>