<svg width="147" height="53" xmlns="http://www.w3.org/2000/svg"><g fill="none" fill-rule="evenodd"><path d="M85.558 31.85c0 10.957-5.986 12.271-11.973 12.271-10.294 0-12.484-5.26-12.484-12.784V10.115h-3.796V8.07h14.382v2.045h-4.089v20.6c0 7.27 1.897 10.885 7.118 10.885 5.33 0 7.922-2.629 7.922-10.19V10.114h-3.833V8.07h10.22v2.045h-3.467V31.85zm9.783 9.824v-31.56h-3.723V8.07h15.952c6.791 0 10.15 3.835 10.15 8.329 0 4.784-4.345 7.488-8.215 8.29 7.52.695 9.565 5.516 9.565 9.06 0 7.23-6.168 9.97-12.23 9.97H91.363v-2.045h3.98zM111.22 16.8c0-3.324-1.716-6.685-5.476-6.685h-4.052v13.698h3.615c3.978 0 5.913-3.36 5.913-7.013zm1.278 16.948c0-4.748-2.043-7.927-6.827-7.927h-3.979v15.853h3.213c5.074 0 7.593-2.996 7.593-7.926zM134.984 9.64c-3.76 0-6.168 2.229-6.168 6.101 0 3.506 3.796 5.186 7.482 6.428 2.19.767 4.965 1.79 6.863 3.617 2.082 1.972 3.213 4.601 3.14 7.925-.146 6.21-4.49 10.41-12.156 10.446-2.883 0-7.373-.657-10.076-2.228l-.291-9.35h2.264c.182 6.282 3.139 9.57 8.322 9.57 4.161 0 6.462-2.776 6.462-7.013 0-3.653-3.03-5.223-7.63-6.757-1.497-.511-4.453-1.608-6.535-3.653-1.861-1.862-2.737-4.201-2.737-6.684 0-7.27 5.183-10.41 11.608-10.41 2.555 0 6.388.913 8.615 2.191l.219 8.108h-2.264c-.473-5.77-2.993-8.29-7.118-8.29z" fill="#E60000"/><path d="M39.33 15.317l-.951.795 1.005 3.286-3.014-1.643-1.004.794 3.33 1.803-3.542 2.862-.952-1.272 1.269-1.008-.952-1.114-1.269 1.007-.952-1.219 1.269-1.007-.952-1.22-6.502 5.408 6.185 4.981 1.11-1.377c.793.053 1.375.636 1.692 1.377l-1.109 1.38.687.53c1.533-1.378 3.542-2.28 5.603-2.28 4.335 0 7.719 3.551 7.719 7.897 0 1.43-.37 2.969-1.164 4.241l1.164.9c-.053.848-.846 1.75-1.638 1.961l-1.11-.9a8.08 8.08 0 0 1-5.656 2.279c-4.335 0-7.718-3.444-7.718-7.843 0-1.431.423-2.916 1.056-4.135l-.634-.583-1.11 1.483c-.793-.106-1.48-.636-1.692-1.483l1.111-1.325-5.233-4.346v6.89l1.744.053c.212.264.37.636.37 1.06 0 .37-.159.796-.317 1.113h-1.797v.849c3.807.635 6.978 3.869 6.978 7.79 0 4.08-3.12 7.314-6.978 7.95v1.378c-.37.212-.846.371-1.269.371-.476 0-1.005-.16-1.427-.37v-1.38c-3.86-.635-6.872-3.868-6.872-7.949 0-3.921 3.013-7.155 6.872-7.738v-.9h-1.798a2.104 2.104 0 0 1-.317-1.114c0-.424.106-.794.317-1.113h1.798v-6.89l-5.287 4.346 1.163 1.325A2.096 2.096 0 0 1 16.81 32.7l-1.11-1.483-.687.583c.74 1.22 1.11 2.704 1.11 4.135 0 4.399-3.384 7.843-7.718 7.843-2.063 0-4.124-.794-5.604-2.28L1.64 42.4C.899 42.188.106 41.287 0 40.44l1.11-.9C.423 38.266 0 36.728 0 35.296 0 30.95 3.384 27.4 7.718 27.4c2.114 0 4.124.9 5.656 2.279l.635-.477-1.11-1.43c.264-.743.952-1.273 1.745-1.378l1.11 1.377 6.185-4.98-6.502-5.408-.952 1.22 1.268 1.006-.951 1.22-1.269-1.007-.952 1.113 1.216 1.008-.952 1.272-3.489-2.862 3.278-1.802-.951-.795-3.014 1.64 1.005-3.285-.952-.795-1.11 3.604-3.542-2.862.951-1.167L6.237 15.9l1.005-1.166-1.27-1.113.952-1.113 1.268.954.9-1.113-2.749-2.172c.264-.9.846-1.643 1.692-2.173L22.677 19.98v-8.003h-1.48v1.537h-1.481v-1.537h-1.534v1.537H16.65V9.01l3.489 1.483V9.222l-3.222-1.324 3.224-1.273V5.407l-3.489 1.378V2.227h1.533V3.87h1.533V2.227h1.48V3.87h1.482V.264A3.969 3.969 0 0 1 24.053 0c.423 0 .899.106 1.322.264V19.98L40.017 8.004a4.304 4.304 0 0 1 1.692 2.173l-2.802 2.173.951 1.113 1.27-.954.952 1.113-1.269 1.113.952 1.167 1.269-1.007.951 1.166-3.542 2.862-1.11-3.606zM9.41 36.993c0 1.274.952 2.068 2.063 2.174L9.62 40.598c-1.268-.477-2.431-2.014-2.431-3.34 0-.423.106-.688.21-1.006-.157 0-.263.053-.369.053-1.692 0-3.12-1.59-3.436-3.234l1.903-1.484c-.053.213-.053.371-.053.53 0 1.061 1.005 2.014 2.063 2.014 1.11 0 2.167-.953 2.167-2.067 0-1.377-1.056-2.28-2.378-2.28-2.59 0-5.127 2.491-5.127 5.778 0 .954.21 1.855.633 2.65l1.163-.9c.793.37 1.428 1.166 1.638 2.067l-1.162.9c1.11.954 2.484 1.378 3.912 1.378 2.96 0 5.34-2.384 5.34-4.506 0-1.218-.847-2.278-2.115-2.278-1.165.002-2.169.902-2.169 2.12zm15.7 4.559c0 1.166.951 2.12 2.062 2.12.793 0 1.11-.318 1.692-.795v2.385a3.656 3.656 0 0 1-1.798.477c-1.269 0-2.326-.371-3.013-1.484-.74 1.113-1.797 1.484-3.066 1.484-.58 0-1.216-.16-1.798-.477v-2.385c.528.53.952.795 1.692.795 1.164 0 2.062-.954 2.062-2.12 0-1.113-.74-2.12-1.956-2.12-2.167 0-3.066 2.067-3.066 3.974 0 2.81 2.061 5.194 4.757 5.67v-1.43c.423-.212.9-.264 1.322-.264.476 0 .952.053 1.375.264v1.43c2.485-.37 4.757-3.02 4.757-5.67 0-1.96-.793-3.974-3.066-3.974-1.163 0-1.956 1.007-1.956 2.12zm13.164-9.487c0 1.06 1.11 2.067 2.22 2.067 1.057 0 2.063-.952 2.063-2.014 0-.159-.053-.317-.053-.53l1.85 1.484c-.318 1.804-1.903 3.392-3.754 3.181.106.318.16.583.16 1.006 0 1.325-1.163 2.862-2.432 3.34l-1.85-1.43c1.162-.107 2.114-.901 2.114-2.175 0-1.218-1.058-2.118-2.22-2.118-1.216 0-2.115 1.06-2.115 2.332 0 1.537 1.85 4.451 5.393 4.451 1.427 0 2.802-.424 3.859-1.377l-1.163-.9c.264-.902.793-1.697 1.638-2.068l1.163.9a5.643 5.643 0 0 0 .687-2.65c0-2.544-1.956-5.777-5.075-5.777-1.322 0-2.485.9-2.485 2.278z" fill="#FFF"/></g></svg>