<svg height="51" width="206" xmlns="http://www.w3.org/2000/svg"><path fill="#fffffe" fill-rule="evenodd" d="M2.84 45.37h45.42V4.25H2.84v41.12zm0 0"/><path fill="#007ab5" fill-rule="evenodd" d="M9.74 35.63c3.93-4.05 18.09-17.12 18.09-17.12-7.36 1.72-15.05 4.06-17.8 5.31L5.9 28.07c3.45-.74 4.56-.88 7.09-1.25l-3.25 8.81zm26.27-20.39S23.52 27.79 21.56 29.59c3.8-1.37 11.58-3 16.53-3.3.57-1.75 1.18-3.02 1.18-3.02l6.61-.66s-5.02-4.06-9.87-7.37zM7.6 41.63c1.42-.62 14.88-5.11 27.25-5.85.27-1.04 1.63-4.54 1.88-5.49-12.85.91-23.29 4.75-27.48 6.69L7.6 41.63zM27.69 9.76c-2.22 1.03-8.61 5.96-12.05 8.56 4.19-1.4 14.25-3.63 19.41-3.75-1.61-1.14-6.14-4.22-7.36-4.81zM0 50.87h50.86V0H0v50.87zm0 0M87.38 44.43l1.87-5.94H77.06c-1.46 0-3.07.01-3.07.01s.57-1.05 1.35-2.35l13.78-24.11V6.78H67.44l-1.61 6.04h11.15c2.19 0 2.98.07 2.98.07s-.53 1.29-1.52 2.96L64.77 39.33v5.1h22.61M97.53 17.92c2.39 0 4.32-1.93 4.32-4.32 0-2.4-1.88-4.33-4.22-4.33-2.4 0-4.38 1.93-4.38 4.33 0 2.39 1.93 4.32 4.28 4.32M94.03 44.49h6.99L101 19.46l-6.95 1.56-.02 23.47M107.88 44.42l-.05-36.93 7.14-1.62.05 38.55h-7.14M121.75 44.42l-.05-36.93 7.14-1.62.05 38.55h-7.14M188.77 44.43l7.61-26.68h-7.19l-2.03 9.54c-.73 3.39-1.31 7.56-1.46 8.7 0 0-.78-4.48-1.98-9.43l-2.14-8.81h-6.56l-2.51 8.97c-1.25 4.53-1.93 9.27-1.93 9.27s-.83-5.21-1.5-8.28l-2.13-9.96h-7.13l7.43 26.68h6.52l1.35-5.47c.62-2.5 1.77-7.08 2.29-9.38.42-1.93.47-2.29.63-3.44.15 1.05.21 1.41.42 2.66.3 1.77.93 4.33 1.5 6.46l2.4 9.17h6.41M154.96 41.31c2.3-2.61 3.34-5.73 3.34-10.32 0-4.33-.94-7.24-3.08-9.74-2.29-2.72-5.26-4.02-9.06-4.02-7.19 0-11.99 5.58-11.99 13.97S138.91 45 146.16 45c4.11 0 6.77-1.4 8.8-3.69zm-5.68-17.51c.94 1.2 1.41 3.54 1.41 7.14 0 6.3-1.3 9.01-4.33 9.01-1.35 0-2.91-.73-3.54-2.19-.57-1.35-.88-3.64-.88-6.72 0-2.66.26-4.53.73-5.94.57-1.67 1.92-2.71 3.59-2.71 1.25 0 2.35.52 3.02 1.41zm0 0M202.59 16.9c-1.85 0-3.37-1.49-3.37-3.4 0-1.92 1.52-3.41 3.37-3.41 1.84 0 3.38 1.49 3.38 3.41 0 1.91-1.54 3.4-3.38 3.4zm0-6.25c-1.52 0-2.71 1.25-2.71 2.85 0 1.59 1.19 2.85 2.71 2.85 1.5 0 2.71-1.26 2.71-2.85 0-1.6-1.21-2.85-2.71-2.85zm.76 4.74l-.33-.59c-.27-.47-.44-.73-.65-.94-.08-.07-.13-.11-.25-.11v1.64h-.62v-3.81h1.16c.85 0 1.23.5 1.23 1.09 0 .59-.37 1.05-.94 1.05.14.07.39.44.59.76l.56.91h-.75zm-1.23-3.29v1.21h.33c.33 0 .5-.05.61-.17.11-.1.18-.27.18-.46 0-.38-.21-.58-.77-.58h-.35zm0 0"/></svg>